<?xml version="1.0" encoding="UTF-8" standalone="no"?>
<!-- Created with Inkscape (http://www.inkscape.org/) -->

<svg
   xmlns:dc="http://purl.org/dc/elements/1.1/"
   xmlns:cc="http://creativecommons.org/ns#"
   xmlns:rdf="http://www.w3.org/1999/02/22-rdf-syntax-ns#"
   xmlns:svg="http://www.w3.org/2000/svg"
   xmlns="http://www.w3.org/2000/svg"
   xmlns:sodipodi="http://sodipodi.sourceforge.net/DTD/sodipodi-0.dtd"
   xmlns:inkscape="http://www.inkscape.org/namespaces/inkscape"
   width="570.7428"
   height="270.62329"
   id="svg2"
   version="1.1"
   inkscape:version="0.48.4 r9939"
   sodipodi:docname="logo.svg"
   inkscape:export-filename="/Users/dougtangren/code/scala/projects/northeast-scala-symposium/src/main/resources/www/images/2014-logo.png"
   inkscape:export-xdpi="90"
   inkscape:export-ydpi="90">
  <defs
     id="defs4">
    <inkscape:path-effect
       effect="skeletal"
       id="path-effect4070"
       is_visible="true"
       pattern="m 165.41421,-361.53033 1,0"
       copytype="single_stretched"
       prop_scale="1"
       scale_y_rel="false"
       spacing="0"
       normal_offset="0"
       tang_offset="0"
       prop_units="false"
       vertical_pattern="false"
       fuse_tolerance="0" />
    <inkscape:perspective
       sodipodi:type="inkscape:persp3d"
       inkscape:vp_x="0 : 526.18109 : 1"
       inkscape:vp_y="872.04724 : 1216.8128 : 1"
       inkscape:vp_z="744.09448 : 526.18109 : 1"
       inkscape:persp3d-origin="372.04724 : 350.78739 : 1"
       id="perspective4039" />
  </defs>
  <sodipodi:namedview
     id="base"
     pagecolor="#ffffff"
     bordercolor="#666666"
     borderopacity="1.0"
     inkscape:pageopacity="0.0"
     inkscape:pageshadow="2"
     inkscape:zoom="1.4142136"
     inkscape:cx="424.77422"
     inkscape:cy="240.80707"
     inkscape:document-units="px"
     inkscape:current-layer="layer11"
     showgrid="false"
     inkscape:window-width="1920"
     inkscape:window-height="1056"
     inkscape:window-x="0"
     inkscape:window-y="24"
     inkscape:window-maximized="1"
     fit-margin-top="10"
     fit-margin-left="10"
     fit-margin-right="10"
     fit-margin-bottom="10" />
  <metadata
     id="metadata7">
    <rdf:RDF>
      <cc:Work
         rdf:about="">
        <dc:format>image/svg+xml</dc:format>
        <dc:type
           rdf:resource="http://purl.org/dc/dcmitype/StillImage" />
        <dc:title />
      </cc:Work>
    </rdf:RDF>
  </metadata>
  <g
     inkscape:groupmode="layer"
     id="layer3"
     inkscape:label="background"
     style="display:inline"
     transform="translate(5.9849075,54.97107)">
    <rect
       style="fill:#000000;fill-opacity:0"
       id="rect3026"
       width="278.5"
       height="83.5"
       x="103"
       y="395.86218"
       rx="14.292993"
       ry="14.458333" />
    <rect
       style="fill:#000000;fill-opacity:0"
       id="rect3028"
       width="238"
       height="94"
       x="109.5"
       y="384.36218"
       rx="14.292993"
       ry="14.458333" />
    <rect
       style="fill:#000000;fill-opacity:0"
       id="rect3798"
       width="245.5"
       height="94.5"
       x="108.5"
       y="384.36218"
       rx="14.292993"
       ry="14.458333" />
    <rect
       style="fill:#000000;fill-opacity:0"
       id="rect3800"
       width="272.5"
       height="127"
       x="103.5"
       y="388.36218"
       rx="14.292993"
       ry="14.458333" />
    <path
       sodipodi:type="arc"
       style="fill:#e7ff20;fill-opacity:0.99685992;stroke:none"
       id="path3821"
       sodipodi:cx="130.28156"
       sodipodi:cy="102.59126"
       sodipodi:rx="101.65632"
       sodipodi:ry="95.41748"
       d="m 231.93787,102.59126 c 0,52.69762 -45.51308,95.41748 -101.65631,95.41748 -56.143239,0 -101.656323,-42.71986 -101.656323,-95.41748 0,-52.697617 45.513084,-95.4174777 101.656323,-95.4174777 56.14323,0 101.65631,42.7198607 101.65631,95.4174777 z"
       transform="matrix(0.88786382,0,0,0.90292021,-3.322113,-19.229784)"
       inkscape:export-filename="/Users/dougtangren/Desktop/2014-logo.png"
       inkscape:export-xdpi="90"
       inkscape:export-ydpi="90" />
  </g>
  <g
     transform="translate(5.9849075,54.97107)"
     style="display:inline"
     inkscape:label="direction-text copy"
     id="g3030"
     inkscape:groupmode="layer">
    <g
       style="font-size:124px;font-style:normal;font-variant:normal;font-weight:bold;font-stretch:normal;text-align:start;line-height:125%;letter-spacing:0px;word-spacing:0px;writing-mode:lr-tb;text-anchor:start;fill:#000000;fill-opacity:0.99685992;stroke:none;font-family:Montserrat"
       id="text3036"
       transform="translate(0.5441265,0)">
      <g
         id="g4005">
        <g
           id="g4018">
          <g
             transform="translate(-0.5441265,0)"
             style="font-size:124px;font-style:normal;font-variant:normal;font-weight:bold;font-stretch:normal;text-align:start;line-height:125%;letter-spacing:0px;word-spacing:0px;writing-mode:lr-tb;text-anchor:start;fill:#000000;fill-opacity:0.99685992;stroke:none;display:inline;font-family:Montserrat;-inkscape-font-specification:Montserrat Bold"
             id="text3032">
            <path
               d="m 23.615092,18.162183 0,37.2 -18.5999995,0 0,-66.712 18.5999995,0 0,7.4399996 c 5.621301,-5.703935 11.945294,-8.5559326 18.972,-8.5559996 7.026614,6.7e-5 12.895941,2.480065 17.608,7.4399996 4.794598,4.96005545 7.191929,11.5733822 7.192,19.8400004 l 0,40.548 -18.6,0 0,-37.696 C 48.78704,7.4155639 45.02571,2.2902357 37.503092,2.2901826 c -3.720037,5.31e-5 -6.985367,1.3640517 -9.796,4.092 -2.728028,2.6453797 -4.092027,6.5720424 -4.092,11.7800004"
               id="path3041"
               inkscape:connector-curvature="0" />
            <path
               d="m 99.090405,22.006183 c -2.4e-5,5.456028 1.529305,9.920023 4.587995,13.392 3.14131,3.38935 7.1093,5.084014 11.904,5.084 4.87729,1.4e-5 8.84529,-1.69465 11.904,-5.084 3.14128,-3.471977 4.71195,-7.935972 4.712,-13.392 -5e-5,-5.455962 -1.57072,-9.919957 -4.712,-13.3920004 -3.05871,-3.4719498 -7.02671,-5.207948 -11.904,-5.208 -4.7947,5.2e-5 -8.76269,1.7360502 -11.904,5.208 -3.05869,3.4720434 -4.588019,7.9360384 -4.587995,13.3920004 m 51.831995,0 c -7e-5,9.672023 -3.34807,17.814682 -10.044,24.428 -6.69605,6.613335 -15.12805,9.919999 -25.296,9.92 -10.08536,-10e-7 -18.476017,-3.306665 -25.171995,-9.92 -6.696008,-6.613318 -10.044005,-14.755977 -10.044,-24.428 -5e-6,-9.671957 3.347992,-17.8146159 10.044,-24.4280004 6.695978,-6.6959355 15.086635,-10.0439326 25.171995,-10.0439996 10.16795,6.7e-5 18.59995,3.3480641 25.296,10.0439996 6.69593,6.6133845 10.04393,14.7560434 10.044,24.4280004"
               id="path3043"
               inkscape:connector-curvature="0" />
            <path
               d="m 199.70865,5.0181826 c -5.5387,5.04e-5 -9.67203,1.9840484 -12.4,5.9520004 -2.72802,3.885373 -4.09202,9.052035 -4.092,15.5 l 0,28.892 -18.6,0 0,-66.712 18.6,0 0,8.8039996 c 2.39731,-2.7279393 5.37331,-5.0426037 8.928,-6.944 3.6373,-1.9012666 7.31596,-2.8932656 11.036,-2.9759996 l 0.124,17.4839996 -3.596,0"
               id="path3045"
               inkscape:connector-curvature="0" />
            <path
               d="m 237.67203,2.0421826 0,29.8840004 c -3e-5,2.562687 0.6613,4.588018 1.984,6.076 1.32263,1.405349 2.8933,2.108015 4.712,2.108 3.47196,1.5e-5 6.40662,-1.57065 8.804,-4.712 l 6.944,13.02 c -5.78671,5.290668 -11.90404,7.935999 -18.352,7.936 -6.36536,-10e-7 -11.78002,-2.107999 -16.244,-6.324 -4.38135,-4.215991 -6.57201,-9.961318 -6.572,-17.236 l 0,-30.7520004 -7.812,0 0,-13.3919996 7.812,0 0,-19.964 18.724,0 0,19.964 16.12,0 0,13.3919996 -16.12,0"
               id="path3047"
               inkscape:connector-curvature="0" />
            <path
               id="path3049"
               transform="translate(-5.9849075,-48.848755)"
               d="m 275.96875,12.1875 0,92.03125 18.59375,0 0,-35.96875 c -3e-5,-5.207959 1.36572,-9.135872 4.09375,-11.78125 2.81063,-2.727949 6.06121,-4.093698 9.78125,-4.09375 7.52262,5.2e-5 11.28119,5.12438 11.28125,15.375 l 0,36.40625 0,0.0625 -0.125,14.28125 -7.8125,0 0,13.40625 7.8125,0 0,30.75 c -2e-5,7.27468 2.18115,13.00276 6.5625,17.21875 4.46397,4.216 9.88463,6.34375 16.25,6.34375 6.44795,0 12.55703,-2.64683 18.34375,-7.9375 L 353.8125,165.25 c -2.39738,3.14135 -5.34055,4.71877 -8.8125,4.71875 -1.81871,2e-5 -3.39612,-0.71965 -4.71875,-2.125 -1.3227,-1.48798 -1.96879,-3.49981 -1.96875,-6.0625 l 0,-29.875 16.125,0 0,-13.40625 -16.125,0 0,-14.28125 0,-0.28125 0,-40.28125 c -7e-5,-8.266618 -2.3929,-14.883695 -7.1875,-19.84375 -4.79473,-4.959935 -10.69214,-7.437433 -17.71875,-7.4375 -6.94404,6.7e-5 -13.22245,2.858565 -18.84375,8.5625 l 0,-32.75 -18.59375,0 z"
               inkscape:connector-curvature="0" />
          </g>
          <path
             d="m 153.27497,126.69041 c -7.52273,7.10934 -16.36805,10.664 -26.536,10.664 -10.08537,0 -18.43469,-3.1 -25.048,-9.3 -6.613346,-6.28265 -9.920009,-14.67331 -9.920004,-25.172 -5e-6,-10.498621 3.347992,-18.847946 10.044004,-25.047999 6.77864,-6.199935 14.75597,-9.299932 23.932,-9.3 9.17595,6.8e-5 16.94661,2.769399 23.312,8.308 6.44793,5.538721 9.67192,13.144047 9.672,22.816 l 0,9.919999 -48.608,0 c 0.57864,3.63736 2.47997,6.61336 5.704,8.928 3.22396,2.31468 6.86129,3.47202 10.912,3.472 6.53062,2e-5 11.90394,-2.19065 16.12,-6.572 l 10.416,11.284 m -13.392,-30.379999 c -0.41339,-3.967955 -1.90139,-7.026619 -4.464,-9.176 -2.56272,-2.149281 -5.70405,-3.223947 -9.424,-3.224 -3.63737,5.3e-5 -6.98537,1.116052 -10.044,3.348 -3.0587,2.232047 -4.83603,5.249378 -5.332,9.052 l 29.264,0"
             id="path3052"
             inkscape:connector-curvature="0" />
          <path
             d="m 228.69022,136.36241 -17.484,0 0,-8.06 c -4.79471,6.03467 -10.74671,9.052 -17.856,9.052 -7.02669,0 -12.93735,-2.02533 -17.732,-6.076 -4.79468,-4.13332 -7.19201,-9.58932 -7.192,-16.368 -1e-5,-6.8613 2.47999,-11.98663 7.44,-15.375999 4.95998,-3.389293 11.73864,-5.083958 20.336,-5.084 l 13.888,0 0,-0.372 c -5e-5,-7.109283 -3.76138,-10.663947 -11.284,-10.664 -3.22404,5.3e-5 -6.6547,0.661386 -10.292,1.984 -3.55469,1.24005 -6.57202,2.810715 -9.052,4.712 l -8.308,-12.028 c 8.76265,-6.365268 18.7653,-9.547932 30.008,-9.548 8.10128,6.8e-5 14.71461,2.0254 19.84,6.076 5.12527,4.050725 7.68793,10.457385 7.688,19.22 l 0,42.531999 m -18.724,-25.42 0,-3.224 -11.656,0 c -7.44003,3e-5 -11.16003,2.31469 -11.16,6.944 -3e-5,2.39735 0.86797,4.25735 2.604,5.58 1.81863,1.24002 4.3813,1.86002 7.688,1.86 3.30663,2e-5 6.19996,-0.99198 8.68,-2.976 2.56262,-2.06665 3.84395,-4.79464 3.844,-8.184"
             id="path3054"
             inkscape:connector-curvature="0" />
          <path
             d="m 295.86722,115.65441 c -6e-5,6.53068 -2.43873,11.78001 -7.316,15.748 -4.79472,3.968 -10.91204,5.952 -18.352,5.952 -4.96003,0 -10.12669,-0.868 -15.5,-2.604 -5.37335,-1.81866 -10.20935,-4.46399 -14.508,-7.936 l 8.184,-11.656 c 6.94398,5.37335 14.34264,8.06001 22.196,8.06 2.39729,10e-6 4.29862,-0.45465 5.704,-1.364 1.40529,-0.99198 2.10795,-2.27332 2.108,-3.844 -5e-5,-1.57065 -0.99204,-3.01731 -2.976,-4.34 -1.90137,-1.32264 -4.71204,-2.56264 -8.432,-3.72 -3.63736,-1.1573 -6.44803,-2.1493 -8.432,-2.976 -1.90136,-0.82663 -4.09202,-2.0253 -6.572,-3.596 -5.04268,-3.1413 -7.56401,-7.770624 -7.564,-13.887999 -1e-5,-6.199946 2.47999,-11.242608 7.44,-15.128 4.95998,-3.885267 11.36664,-5.827932 19.22,-5.828 7.85329,6.8e-5 15.70661,2.645399 23.56,7.936 l -6.944,12.4 c -5.78672,-3.967948 -11.57338,-5.951946 -17.36,-5.952 -5.70403,5.4e-5 -8.55603,1.570719 -8.556,4.712 -3e-5,1.736047 0.9093,3.100046 2.728,4.092 1.81863,0.992044 4.83596,2.149376 9.052,3.472 4.21596,1.322707 7.19195,2.356039 8.928,3.1 1.81862,0.661371 3.96795,1.736039 6.448,3.223999 4.62927,2.8107 6.94394,7.5227 6.944,14.136"
             id="path3056"
             inkscape:connector-curvature="0" />
        </g>
      </g>
    </g>
  </g>
  <g
     inkscape:groupmode="layer"
     id="layer9"
     inkscape:label="ne-dot"
     style="display:inline"
     transform="translate(5.9849075,54.97107)">
    <path
       style="fill:#000000;fill-opacity:1;stroke:none"
       d="m 358.76443,-21.783117 c 0,4.686291 -3.6407,8.48528 -8.13173,8.48528 -4.49102,0 -8.13172,-3.798989 -8.13172,-8.48528 0,-4.686292 3.6407,-8.485281 8.13172,-8.485281 4.49103,0 8.13173,3.798989 8.13173,8.485281 z"
       id="path3033"
       inkscape:connector-curvature="0" />
  </g>
  <g
     transform="translate(5.9849075,54.97107)"
     style="display:inline"
     inkscape:label="symp-text copy"
     id="g3078"
     inkscape:groupmode="layer">
    <g
       style="font-size:50px;font-style:normal;font-variant:normal;font-weight:300;font-stretch:normal;text-align:justify;line-height:50%;letter-spacing:13px;word-spacing:0px;writing-mode:lr-tb;text-anchor:start;fill:#000000;fill-opacity:0.99685992;stroke:none;font-family:Signika;-inkscape-font-specification:Signika Light"
       id="text3080">
      <path
         d="m 4.0150925,187.52346 c 0.033331,-1.03333 0.5166643,-1.93333 1.45,-2.7 1.4999952,0.86667 2.8333272,1.46667 4,1.8 1.1999915,0.33334 2.2833235,0.5 3.2499995,0.5 0.833322,0 1.549988,-0.1 2.15,-0.3 0.63332,-0.23333 1.166653,-0.51666 1.6,-0.85 0.433319,-0.36666 0.766652,-0.76666 1,-1.2 0.233318,-0.43333 0.366651,-0.86666 0.4,-1.3 -1.5e-5,-0.99999 -0.316682,-1.83332 -0.95,-2.5 -0.600014,-0.69999 -1.500013,-1.28332 -2.7,-1.75 l -2.8,-1.1 c -2.13334,-0.83332 -3.7333384,-1.79998 -4.7999995,-2.9 -1.0666701,-1.13332 -1.6000029,-2.48331 -1.6,-4.05 -2.9e-6,-1.03331 0.2166636,-1.96664 0.65,-2.8 0.4333294,-0.86664 1.0333288,-1.59998 1.8,-2.2 0.7666606,-0.59997 1.6666597,-1.06664 2.6999995,-1.4 1.033325,-0.33331 2.166657,-0.49997 3.4,-0.5 2.466653,3e-5 4.933317,0.55003 7.4,1.65 -1.8e-5,1.16669 -0.383351,2.13336 -1.15,2.9 -1.266683,-0.56664 -2.433348,-0.96664 -3.5,-1.2 -1.033346,-0.23331 -1.983345,-0.34998 -2.85,-0.35 -1.533343,2e-5 -2.700008,0.35002 -3.4999995,1.05 -0.7666737,0.70002 -1.1500067,1.50002 -1.15,2.4 -6.7e-6,0.96669 0.299993,1.73335 0.9,2.3 0.5999915,0.53335 1.5499905,1.05002 2.8499995,1.55 l 2.95,1.15 c 4.133316,1.63335 6.199981,4.05001 6.2,7.25 -1.9e-5,2.23334 -0.850018,3.96667 -2.55,5.2 -1.700015,1.23334 -4.000013,1.85 -6.9,1.85 -2.8333401,0 -5.5833374,-0.83333 -8.2499995,-2.5"
         id="path3060"
         inkscape:connector-curvature="0" />
      <path
         d="m 58.64478,165.12346 -6.85,23.45 c -1.26668,4.3 -2.616679,7.33333 -4.05,9.1 -1.433343,1.76666 -3.583341,2.64999 -6.45,2.65 -1.46667,-1e-5 -2.816668,-0.21668 -4.05,-0.65 -0.1,-0.93334 0.166666,-1.83334 0.8,-2.7 1.033331,0.36666 2.13333,0.54999 3.3,0.55 1.76666,-1e-5 3.116659,-0.60001 4.05,-1.8 0.933324,-1.2 1.783323,-3.06667 2.55,-5.6 l 0.15,-0.5 c -0.866677,-0.0667 -1.533343,-0.26666 -2,-0.6 -0.433342,-0.33333 -0.800008,-0.95 -1.1,-1.85 l -7,-22 c 1.033331,-0.43331 1.766664,-0.64997 2.2,-0.65 0.966662,3e-5 1.616662,0.58336 1.95,1.75 l 3.95,12.55 c 0.133324,0.40001 0.89999,3.00001 2.3,7.8 0.06666,0.23334 0.233322,0.35 0.5,0.35 l 6.1,-22.1 c 0.433315,-0.13331 0.999981,-0.19997 1.7,-0.2 0.733313,3e-5 1.349979,0.10003 1.85,0.3 l 0.1,0.15"
         id="path3062"
         inkscape:connector-curvature="0" />
      <path
         d="m 90.453374,173.42346 c -1.8e-5,-1.99998 -0.266685,-3.43331 -0.8,-4.3 -0.500017,-0.86664 -1.33335,-1.29998 -2.5,-1.3 -1.133347,2e-5 -2.316679,0.35002 -3.55,1.05 -1.20001,0.70002 -2.233343,1.65002 -3.1,2.85 l 0,17.7 c -0.500008,0.1 -1.116674,0.15 -1.85,0.15 -0.733339,0 -1.350005,-0.05 -1.85,-0.15 l 0,-24.35 0.3,-0.35 1.4,0 c 0.799993,3e-5 1.333326,0.21669 1.6,0.65 0.266658,0.40003 0.399992,1.05002 0.4,1.95 l 0,0.75 c 2.09999,-2.39997 4.53332,-3.59997 7.3,-3.6 2.766648,3e-5 4.64998,1.25003 5.65,3.75 2.733309,-2.49997 5.433307,-3.74997 8.099996,-3.75 2.09997,3e-5 3.66664,0.71669 4.7,2.15 1.0333,1.40002 1.54997,3.25002 1.55,5.55 l 0,12.5 c -3e-5,1.9 0.19997,3.31667 0.6,4.25 -0.5667,0.53334 -1.35003,0.8 -2.35,0.8 -1.2667,0 -1.90003,-0.81666 -1.9,-2.45 l 0,-13.9 c -3e-5,-1.99998 -0.26669,-3.41665 -0.8,-4.25 -0.50003,-0.86664 -1.33336,-1.29998 -2.5,-1.3 -1.133357,2e-5 -2.300022,0.33336 -3.499996,1 -1.200024,0.66669 -2.26669,1.60002 -3.2,2.8 l 0,17.8 c -0.500022,0.1 -1.116688,0.15 -1.85,0.15 -0.733353,0 -1.350019,-0.05 -1.85,-0.15 l 0,-16"
         id="path3064"
         inkscape:connector-curvature="0" />
      <path
         d="m 133.00415,187.77346 0,9.9 c 0,0.89999 -0.13334,1.53333 -0.4,1.9 -0.26667,0.39999 -0.8,0.59999 -1.6,0.6 l -1.35,0 -0.3,-0.3 0,-34.85 0.3,-0.3 1.3,0 c 0.8,3e-5 1.33333,0.21669 1.6,0.65 0.3,0.40003 0.45,1.06669 0.45,2 l 0,0.25 c 1.99999,-2.23331 4.38333,-3.34997 7.15,-3.35 2.83332,3e-5 4.96665,1.15003 6.4,3.45 1.43332,2.26669 2.14998,5.41668 2.15,9.45 -2e-5,1.96668 -0.26669,3.73334 -0.8,5.3 -0.50002,1.56667 -1.18335,2.90001 -2.05,4 -0.83335,1.06667 -1.80001,1.9 -2.9,2.5 -1.10001,0.56667 -2.23334,0.85 -3.4,0.85 -2.30001,0 -4.48334,-0.68333 -6.55,-2.05 m 0,-16.25 0,12.85 c 2.03333,1.50001 3.94999,2.25 5.75,2.25 1.79999,0 3.28332,-0.79999 4.45,-2.4 1.16665,-1.59999 1.74998,-4.01666 1.75,-7.25 -2e-5,-1.59998 -0.15001,-2.98332 -0.45,-4.15 -0.26668,-1.19998 -0.63335,-2.18331 -1.1,-2.95 -0.46668,-0.79998 -1.01668,-1.38331 -1.65,-1.75 -0.60001,-0.39998 -1.25001,-0.59998 -1.95,-0.6 -1.33334,2e-5 -2.60001,0.35002 -3.8,1.05 -1.2,0.70002 -2.2,1.68335 -3,2.95"
         id="path3066"
         inkscape:connector-curvature="0" />
      <path
         d="m 184.07369,187.37346 c -1.76669,1.76667 -4.06669,2.65 -6.9,2.65 -1.66668,0 -3.15001,-0.31667 -4.45,-0.95 -1.26668,-0.63333 -2.35001,-1.5 -3.25,-2.6 -0.86667,-1.13333 -1.53334,-2.48333 -2,-4.05 -0.43334,-1.59999 -0.65001,-3.34999 -0.65,-5.25 -1e-5,-1.89998 0.21666,-3.63332 0.65,-5.2 0.46666,-1.59998 1.13333,-2.96664 2,-4.1 0.89999,-1.13331 1.98332,-2.01664 3.25,-2.65 1.29999,-0.63331 2.78332,-0.94997 4.45,-0.95 1.66665,3e-5 3.13331,0.31669 4.4,0.95 1.29998,0.63336 2.38331,1.51669 3.25,2.65 0.89997,1.13336 1.58331,2.50002 2.05,4.1 0.46664,1.56668 0.69997,3.30002 0.7,5.2 -3e-5,4.46668 -1.16669,7.86667 -3.5,10.2 m -6.85,-0.25 c 2.13331,0 3.74998,-0.89999 4.85,-2.7 1.13331,-1.83332 1.69998,-4.24999 1.7,-7.25 -2e-5,-1.33332 -0.13336,-2.59998 -0.4,-3.8 -0.23336,-1.23331 -0.61669,-2.29998 -1.15,-3.2 -0.53335,-0.93331 -1.21669,-1.66664 -2.05,-2.2 -0.83335,-0.53331 -1.83335,-0.79998 -3,-0.8 -1.13335,2e-5 -2.11668,0.26669 -2.95,0.8 -0.80001,0.50002 -1.46668,1.20002 -2,2.1 -0.53334,0.90002 -0.93334,1.96669 -1.2,3.2 -0.23334,1.20002 -0.35001,2.50002 -0.35,3.9 -1e-5,1.40001 0.11666,2.70001 0.35,3.9 0.26666,1.20001 0.64999,2.25001 1.15,3.15 0.53332,0.90001 1.21665,1.61667 2.05,2.15 0.83332,0.5 1.83332,0.75 3,0.75"
         id="path3068"
         inkscape:connector-curvature="0" />
      <path
         d="m 205.05025,187.52346 c 0.0333,-1.03333 0.51666,-1.93333 1.45,-2.7 1.49999,0.86667 2.83333,1.46667 4,1.8 1.19999,0.33334 2.28332,0.5 3.25,0.5 0.83332,0 1.54999,-0.1 2.15,-0.3 0.63332,-0.23333 1.16665,-0.51666 1.6,-0.85 0.43332,-0.36666 0.76665,-0.76666 1,-1.2 0.23332,-0.43333 0.36665,-0.86666 0.4,-1.3 -2e-5,-0.99999 -0.31668,-1.83332 -0.95,-2.5 -0.60002,-0.69999 -1.50001,-1.28332 -2.7,-1.75 l -2.8,-1.1 c -2.13334,-0.83332 -3.73334,-1.79998 -4.8,-2.9 -1.06667,-1.13332 -1.6,-2.48331 -1.6,-4.05 0,-1.03331 0.21666,-1.96664 0.65,-2.8 0.43333,-0.86664 1.03333,-1.59998 1.8,-2.2 0.76666,-0.59997 1.66666,-1.06664 2.7,-1.4 1.03332,-0.33331 2.16666,-0.49997 3.4,-0.5 2.46665,3e-5 4.93332,0.55003 7.4,1.65 -2e-5,1.16669 -0.38335,2.13336 -1.15,2.9 -1.26668,-0.56664 -2.43335,-0.96664 -3.5,-1.2 -1.03335,-0.23331 -1.98335,-0.34998 -2.85,-0.35 -1.53334,2e-5 -2.70001,0.35002 -3.5,1.05 -0.76667,0.70002 -1.15001,1.50002 -1.15,2.4 -10e-6,0.96669 0.29999,1.73335 0.9,2.3 0.59999,0.53335 1.54999,1.05002 2.85,1.55 l 2.95,1.15 c 4.13331,1.63335 6.19998,4.05001 6.2,7.25 -2e-5,2.23334 -0.85002,3.96667 -2.55,5.2 -1.70002,1.23334 -4.00001,1.85 -6.9,1.85 -2.83334,0 -5.58334,-0.83333 -8.25,-2.5"
         id="path3070"
         inkscape:connector-curvature="0" />
      <path
         d="m 246.37994,168.32346 0,21.1 c -0.50001,0.1 -1.11668,0.15 -1.85,0.15 -0.73334,0 -1.35001,-0.05 -1.85,-0.15 l 0,-19.3 c -10e-6,-0.93331 -0.15001,-1.56664 -0.45,-1.9 -0.30001,-0.33331 -0.83334,-0.49998 -1.6,-0.5 l -0.45,0 c -0.13334,-0.36664 -0.20001,-0.81664 -0.2,-1.35 -1e-5,-0.53331 0.0667,-0.99997 0.2,-1.4 0.63333,-0.0666 1.14999,-0.11664 1.55,-0.15 0.39999,-0.0666 0.71666,-0.1 0.95,-0.1 l 0.4,0 c 1.03332,3e-5 1.83332,0.33336 2.4,1 0.59999,0.63336 0.89999,1.50002 0.9,2.6 m -4.9,-12 c 0.53333,-0.3333 1.29999,-0.49996 2.3,-0.5 0.96666,4e-5 1.63332,0.15004 2,0.45 0.36665,0.30003 0.54999,0.93337 0.55,1.9 -1e-5,0.9667 -0.20001,1.6167 -0.6,1.95 -0.40001,0.30003 -1.05001,0.45003 -1.95,0.45 -0.80001,3e-5 -1.45001,-0.11664 -1.95,-0.35 -0.46667,-0.26664 -0.70001,-0.94997 -0.7,-2.05 -1e-5,-0.76663 0.11666,-1.3833 0.35,-1.85"
         id="path3072"
         inkscape:connector-curvature="0" />
      <path
         d="m 267.8229,182.07346 0,-12.45 c 0,-1.76664 -0.2,-3.18331 -0.6,-4.25 0.56667,-0.53331 1.35,-0.79997 2.35,-0.8 1.26666,3e-5 1.9,0.81669 1.9,2.45 l 0,13.85 c 0,2.10001 0.26666,3.56667 0.8,4.4 0.53333,0.83334 1.46666,1.25 2.8,1.25 1.33333,0 2.71666,-0.34999 4.15,-1.05 1.43332,-0.73333 2.63332,-1.66666 3.6,-2.8 l 0,-17.75 c 0.19999,-0.0666 0.46665,-0.11664 0.8,-0.15 0.33332,-0.0333 0.68332,-0.05 1.05,-0.05 0.36665,3e-5 0.69998,0.0167 1,0.05 0.33332,0.0334 0.61665,0.0834 0.85,0.15 l 0,17.6 c -2e-5,2.66667 0.46665,4.45 1.4,5.35 -0.30002,0.93334 -0.86669,1.56667 -1.7,1.9 -1.63335,-0.53333 -2.68335,-1.76666 -3.15,-3.7 -1.13335,1.13334 -2.50001,2.05 -4.1,2.75 -1.56668,0.7 -3.15001,1.05 -4.75,1.05 -2.23334,0 -3.86667,-0.71666 -4.9,-2.15 -1,-1.43333 -1.5,-3.31666 -1.5,-5.65"
         id="path3074"
         inkscape:connector-curvature="0" />
      <path
         d="m 322.06665,173.42346 c -10e-6,-1.99998 -0.26668,-3.43331 -0.8,-4.3 -0.50001,-0.86664 -1.33334,-1.29998 -2.5,-1.3 -1.13334,2e-5 -2.31667,0.35002 -3.55,1.05 -1.20001,0.70002 -2.23334,1.65002 -3.1,2.85 l 0,17.7 c -0.5,0.1 -1.11667,0.15 -1.85,0.15 -0.73333,0 -1.35,-0.05 -1.85,-0.15 l 0,-24.35 0.3,-0.35 1.4,0 c 0.8,3e-5 1.33333,0.21669 1.6,0.65 0.26666,0.40003 0.4,1.05002 0.4,1.95 l 0,0.75 c 2.09999,-2.39997 4.53333,-3.59997 7.3,-3.6 2.76665,3e-5 4.64998,1.25003 5.65,3.75 2.73331,-2.49997 5.43331,-3.74997 8.1,-3.75 2.09997,3e-5 3.66664,0.71669 4.7,2.15 1.0333,1.40002 1.54997,3.25002 1.55,5.55 l 0,12.5 c -3e-5,1.9 0.19997,3.31667 0.6,4.25 -0.5667,0.53334 -1.35003,0.8 -2.35,0.8 -1.26669,0 -1.90003,-0.81666 -1.9,-2.45 l 0,-13.9 c -3e-5,-1.99998 -0.26669,-3.41665 -0.8,-4.25 -0.50003,-0.86664 -1.33336,-1.29998 -2.5,-1.3 -1.13336,2e-5 -2.30002,0.33336 -3.5,1 -1.20002,0.66669 -2.26668,1.60002 -3.2,2.8 l 0,17.8 c -0.50002,0.1 -1.11668,0.15 -1.85,0.15 -0.73335,0 -1.35001,-0.05 -1.85,-0.15 l 0,-16"
         id="path3076"
         inkscape:connector-curvature="0" />
    </g>
  </g>
  <g
     style="display:inline"
     transform="translate(5.9849075,54.97107)"
     inkscape:label="scala-text copy"
     id="g3060"
     inkscape:groupmode="layer">
    <g
       style="font-size:80px;font-style:normal;font-variant:normal;font-weight:bold;font-stretch:normal;text-align:start;line-height:125%;letter-spacing:0px;word-spacing:0px;writing-mode:lr-tb;text-anchor:start;fill:#000000;fill-opacity:0.99685992;stroke:none;font-family:Montserrat"
       id="text3062"
       transform="translate(-20,0)">
      <path
         d="m 411.69166,33.778836 c -3e-5,4.213342 -1.57337,7.600006 -4.72,10.16 -3.09336,2.560001 -7.04002,3.839999 -11.84,3.84 -3.20001,-10e-7 -6.53334,-0.56 -10,-1.68 -3.46667,-1.173331 -6.58667,-2.879996 -9.36,-5.12 l 5.28,-7.52 c 4.47999,3.466677 9.25332,5.200008 14.32,5.2 1.54665,8e-6 2.77331,-0.293325 3.68,-0.88 0.90664,-0.63999 1.35998,-1.466656 1.36,-2.48 -2e-5,-1.013321 -0.64002,-1.946653 -1.92,-2.8 -1.22669,-0.853318 -3.04002,-1.653317 -5.44,-2.4 -2.34668,-0.746649 -4.16001,-1.386648 -5.44,-1.92 -1.22668,-0.533314 -2.64001,-1.306646 -4.24,-2.32 -3.25334,-2.026643 -4.88,-5.013307 -4.88,-8.96 0,-3.999966 1.6,-7.2532959 4.8,-9.7600001 3.19999,-2.5066242 7.33332,-3.7599562 12.4,-3.76 5.06664,4.38e-5 10.1333,1.7067087 15.2,5.12 l -4.48,8.0000001 c -3.73336,-2.559967 -7.46669,-3.839966 -11.2,-3.84 -3.68001,3.4e-5 -5.52001,1.013367 -5.52,3.04 -1e-5,1.12003 0.58665,2.000029 1.76,2.64 1.17332,0.640028 3.11998,1.386694 5.84,2.24 2.71998,0.853359 4.63998,1.520025 5.76,2 1.17331,0.426691 2.55997,1.120023 4.16,2.08 2.98663,1.813354 4.47997,4.853351 4.48,9.12"
         id="path3067"
         inkscape:connector-curvature="0" />
      <path
         d="m 441.49416,37.138836 c 3.99997,1e-5 7.59997,-1.999988 10.8,-6 l 7.12,8 c -5.5467,5.760002 -11.5467,8.639999 -18,8.64 -6.45335,-10e-7 -11.92001,-2.026665 -16.4,-6.08 -4.42667,-4.106657 -6.64,-9.439985 -6.64,-16 0,-6.613305 2.24,-11.9733 6.72,-16.0800001 4.53332,-4.1599583 9.89332,-6.2399562 16.08,-6.24 3.09331,4.38e-5 6.2133,0.6400431 9.36,1.92 3.19997,1.2800406 5.99996,3.173372 8.4,5.6800001 l -6.24,8.16 c -1.3867,-1.653304 -3.09336,-2.933302 -5.12,-3.84 -1.97336,-0.906634 -3.94669,-1.359967 -5.92,-1.36 -3.14669,3.3e-5 -5.86668,1.040032 -8.16,3.12 -2.24001,2.026695 -3.36001,4.880025 -3.36,8.56 -1e-5,3.626684 1.11999,6.453348 3.36,8.48 2.29332,2.026678 4.95998,3.04001 8,3.04"
         id="path3069"
         inkscape:connector-curvature="0" />
      <path
         d="m 503.82041,47.138836 -11.28,0 0,-5.2 c -3.09336,3.893335 -6.93335,5.839999 -11.52,5.84 -4.53334,-10e-7 -8.34667,-1.306666 -11.44,-3.92 -3.09333,-2.666661 -4.64,-6.186657 -4.64,-10.56 0,-4.426648 1.6,-7.733312 4.8,-9.92 3.19999,-2.186641 7.57332,-3.279973 13.12,-3.28 l 8.96,0 0,-0.24 c -3e-5,-4.586635 -2.42669,-6.879966 -7.28,-6.88 -2.08002,3.4e-5 -4.29335,0.4267 -6.64,1.28 -2.29334,0.800032 -4.24001,1.813364 -5.84,3.04 l -5.36,-7.7600001 c 5.65333,-4.106625 12.10665,-6.1599562 19.36,-6.16 5.22664,4.38e-5 9.4933,1.3067091 12.8,3.92 3.30663,2.6133706 4.95996,6.7467001 4.96,12.4000001 l 0,27.44 m -12.08,-16.4 0,-2.08 -7.52,0 c -4.80001,1.8e-5 -7.20001,1.49335 -7.2,4.48 -1e-5,1.546679 0.55999,2.746678 1.68,3.6 1.17332,0.80001 2.82665,1.200009 4.96,1.2 2.13331,9e-6 3.99998,-0.63999 5.6,-1.92 1.65331,-1.333321 2.47997,-3.093319 2.48,-5.28"
         id="path3071"
         inkscape:connector-curvature="0" />
      <path
         d="m 526.76041,47.138836 -12,0 0,-59.36 12,0 0,59.36"
         id="path3073"
         inkscape:connector-curvature="0" />
      <path
         d="m 574.75791,47.138836 -11.28,0 0,-5.2 c -3.09336,3.893335 -6.93335,5.839999 -11.52,5.84 -4.53334,-10e-7 -8.34667,-1.306666 -11.44,-3.92 -3.09333,-2.666661 -4.64,-6.186657 -4.64,-10.56 0,-4.426648 1.6,-7.733312 4.8,-9.92 3.19999,-2.186641 7.57332,-3.279973 13.12,-3.28 l 8.96,0 0,-0.24 c -3e-5,-4.586635 -2.42669,-6.879966 -7.28,-6.88 -2.08002,3.4e-5 -4.29335,0.4267 -6.64,1.28 -2.29334,0.800032 -4.24001,1.813364 -5.84,3.04 l -5.36,-7.7600001 c 5.65333,-4.106625 12.10665,-6.1599562 19.36,-6.16 5.22664,4.38e-5 9.4933,1.3067091 12.8,3.92 3.30663,2.6133706 4.95996,6.7467001 4.96,12.4000001 l 0,27.44 m -12.08,-16.4 0,-2.08 -7.52,0 c -4.80001,1.8e-5 -7.20001,1.49335 -7.2,4.48 -10e-6,1.546679 0.55999,2.746678 1.68,3.6 1.17332,0.80001 2.82665,1.200009 4.96,1.2 2.13331,9e-6 3.99998,-0.63999 5.6,-1.92 1.65331,-1.333321 2.47997,-3.093319 2.48,-5.28"
         id="path3075"
         inkscape:connector-curvature="0" />
    </g>
  </g>
  <g
     inkscape:groupmode="layer"
     id="layer1"
     inkscape:label="div"
     style="display:inline"
     transform="translate(5.9849075,54.97107)">
    <rect
       style="fill:#000000;fill-opacity:0.99685992;stroke:none"
       id="rect3801"
       width="131.9301"
       height="2.2019417"
       x="98.093201"
       y="146.867"
       inkscape:export-filename="/Users/dougtangren/Desktop/2014-logo.png"
       inkscape:export-xdpi="90"
       inkscape:export-ydpi="90" />
  </g>
  <g
     inkscape:groupmode="layer"
     id="layer4"
     inkscape:label="tower"
     style="display:inline"
     transform="translate(5.9849075,54.97107)">
    <g
       id="g4417"
       transform="matrix(0.99269039,0,0,1.1144783,-92.547205,-32.165405)">
      <g
         id="g3048"
         transform="translate(-5.3318672,0)">
        <path
           inkscape:connector-curvature="0"
           style="fill:#000000;fill-opacity:0.99685992;stroke:none;display:inline"
           d="m 524.47299,141.30213 -4.26725,9.84375 c -0.98975,2.26167 -1.00619,4.33162 -0.0364,4.65625 0.96966,0.32463 2.54806,-1.23833 3.5378,-3.5 l 0.54709,-1.28125 11.74406,-5.625 c -1.86472,-0.31781 -3.62151,-0.73787 -5.252,-1.25 l -4.41315,2.09375 1.38595,-3.21875 c -1.18847,-0.51468 -2.28122,-1.10298 -3.24609,-1.71875 z"
           id="rect4077-6-0" />
        <path
           inkscape:connector-curvature="0"
           style="fill:#000000;fill-opacity:0.99685992;stroke:none;display:inline"
           d="m 564.1803,141.30213 4.26725,9.84375 c 0.98975,2.26167 1.00619,4.33162 0.0364,4.65625 -0.96966,0.32463 -2.54807,-1.23833 -3.53781,-3.5 l -0.54708,-1.28125 -11.74407,-5.625 c 1.86472,-0.31781 3.62152,-0.73787 5.25201,-1.25 l 4.41314,2.09375 -1.38595,-3.21875 c 1.18847,-0.51468 2.28123,-1.10298 3.24609,-1.71875 z"
           id="rect4077-6-0-8" />
        <path
           style="fill:#000000;fill-opacity:1;stroke:none;display:inline"
           mask="none"
           d="m 569.20071,120.12 c -3.49913,4.77541 -13.37864,8.21875 -25.05642,8.21875 -11.29019,0 -20.90226,-3.22085 -24.69171,-7.75 l 0,7.75 0,2.71875 0,1 0,0.28125 c 0.30604,6.50973 11.31599,11.71875 24.83759,11.71875 13.52161,0 24.53156,-5.20902 24.8376,-11.71875 l 0.0729,0 0,-1.28125 0,-2.71875 0,-8.21875 z"
           id="path4074-6"
           inkscape:connector-curvature="0" />
        <path
           inkscape:connector-curvature="0"
           style="fill:#000000;fill-opacity:1;stroke:none;display:inline"
           mask="none"
           d="m 544.32666,80.713745 -12.43703,8.6875 -12.43704,8.6875 c 1.09586,6.147055 11.74244,10.968755 24.72818,10.968755 12.98574,0 23.63232,-4.8217 24.72818,-10.968755 l 0.29178,0 -12.43704,-8.6875 -12.43703,-8.6875 z"
           id="path4074-6-7" />
        <path
           inkscape:connector-curvature="0"
           style="fill:#000000;fill-opacity:1;stroke:none;display:inline"
           mask="none"
           d="m 569.20073,102.62 c -3.49913,4.77541 -13.37865,8.21875 -25.05643,8.21875 -11.29018,0 -20.90226,-3.22085 -24.69171,-7.75 l 0,7.75 0,2.71875 0,1 0,0.28125 c 0.30604,6.50974 11.31599,11.71875 24.8376,11.71875 13.52161,0 24.53155,-5.20901 24.83759,-11.71875 l 0.0729,0 0,-1.28125 0,-2.71875 0,-8.21875 z m -44.71497,11 c 0.72764,0 1.313,0.67321 1.313,1.46875 0,0.79554 -0.58536,1.4375 -1.313,1.4375 -0.72763,0 -1.313,-0.64196 -1.313,-1.4375 0,-0.79554 0.58537,-1.46875 1.313,-1.46875 z"
           id="path4074-6-71" />
      </g>
    </g>
  </g>
  <g
     inkscape:groupmode="layer"
     id="layer11"
     inkscape:label="glow"
     transform="translate(5.9849075,54.97107)"
     style="display:inline">
    <path
       sodipodi:type="arc"
       style="fill:#fdffdb;fill-opacity:0.50847461;stroke:none"
       id="path5258"
       sodipodi:cx="47.70874"
       sodipodi:cy="10.109708"
       sodipodi:rx="89.545631"
       sodipodi:ry="88.811653"
       d="m 137.25437,10.109708 c 0,49.049321 -40.090943,88.811653 -89.54563,88.811653 -49.4546864,0 -89.545631,-39.762332 -89.545631,-88.811653 0,-49.049322 40.0909446,-88.811653 89.545631,-88.811653 49.454687,0 89.54563,39.762331 89.54563,88.811653 z"
       transform="matrix(1.3618954,0,0,1.4109821,76.91977,66.075966)"
       inkscape:export-xdpi="90"
       inkscape:export-ydpi="90"
       inkscape:export-filename="/Users/dougtangren/Desktop/2014-logo.png" />
  </g>
</svg>
